HIERARCHY
ROOT Hips
{
	OFFSET 0.000000 0.000000 0.000000
	CHANNELS 6 Xposition Yposition Zposition Xrotation Yrotation Zrotation
	JOINT LeftUpLeg_virtual
	{
		OFFSET 0.000000 0.000000 0.000000
		CHANNELS 3 Xrotation Yrotation Zrotation
		JOINT LeftUpLeg
		{
			OFFSET 10.205400 -3.823500 0.155100
			CHANNELS 3 Xrotation Yrotation Zrotation
			JOINT LeftLeg
			{
				OFFSET 0.708757 -12.982077 0.567790
				CHANNELS 3 Xrotation Yrotation Zrotation
				JOINT LeftFoot
				{
					OFFSET -0.708756 -10.717838 -2.184338
					CHANNELS 3 Xrotation Yrotation Zrotation
					JOINT LeftToeBase
					{
						OFFSET 0.108149 -7.191104 7.560241
						CHANNELS 3 Xrotation Yrotation Zrotation
						JOINT LeftToe_End
						{
							OFFSET 0.070230 0.081724 4.490308
							CHANNELS 3 Xrotation Yrotation Zrotation
							End Site
							{
								OFFSET 0 0 0
							}
						}
					}
				}
			}
		}
	}
	JOINT RightUpLeg_virtual
	{
		OFFSET 0.000000 0.000000 0.000000
		CHANNELS 3 Xrotation Yrotation Zrotation
		JOINT RightUpLeg
		{
			OFFSET -10.205400 -3.823500 0.005500
			CHANNELS 3 Xrotation Yrotation Zrotation
			JOINT RightLeg
			{
				OFFSET -0.708756 -12.982134 0.610632
				CHANNELS 3 Xrotation Yrotation Zrotation
				JOINT RightFoot
				{
					OFFSET 0.708754 -10.717769 -1.945823
					CHANNELS 3 Xrotation Yrotation Zrotation
					JOINT RightToeBase
					{
						OFFSET -0.108140 -7.191069 7.372968
						CHANNELS 3 Xrotation Yrotation Zrotation
						JOINT RightToe_End
						{
							OFFSET -0.070227 0.081735 4.479403
							CHANNELS 3 Xrotation Yrotation Zrotation
							End Site
							{
								OFFSET 0 0 0
							}
						}
					}
				}
			}
		}
	}
	JOINT Spine_virtual
	{
		OFFSET 0.000000 0.000000 0.000000
		CHANNELS 3 Xrotation Yrotation Zrotation
		JOINT Spine
		{
			OFFSET 0.000000 6.876099 0.125700
			CHANNELS 3 Xrotation Yrotation Zrotation
			JOINT Spine1
			{
				OFFSET 0.000000 5.730043 0.104720
				CHANNELS 3 Xrotation Yrotation Zrotation
				JOINT Spine1_split
				{
					OFFSET 0.000000 5.730043 0.104720
					CHANNELS 3 Xrotation Yrotation Zrotation
					JOINT Spine2
					{
						OFFSET 0.000000 5.730043 0.104720
						CHANNELS 3 Xrotation Yrotation Zrotation
						JOINT Neck_virtual
						{
							OFFSET 0.000000 0.000000 0.000000
							CHANNELS 3 Xrotation Yrotation Zrotation
							JOINT Neck
							{
								OFFSET 0.000000 10.314075 0.188496
								CHANNELS 3 Xrotation Yrotation Zrotation
								JOINT Head
								{
									OFFSET 0.000000 7.643700 -2.377400
									CHANNELS 3 Xrotation Yrotation Zrotation
									JOINT HeadTop_End
									{
										OFFSET 0.000000 43.788605 -13.619600
										CHANNELS 3 Xrotation Yrotation Zrotation
										End Site
										{
											OFFSET 0 0 0
										}
									}
								}
							}
						}
						JOINT LeftShoulder_virtual
						{
							OFFSET 0.000000 0.000000 0.000000
							CHANNELS 3 Xrotation Yrotation Zrotation
							JOINT LeftShoulder
							{
								OFFSET 2.196100 4.412489 0.087492
								CHANNELS 3 Xrotation Yrotation Zrotation
								JOINT LeftShoulder_split
								{
									OFFSET 2.196100 4.412489 0.087492
									CHANNELS 3 Xrotation Yrotation Zrotation
									JOINT LeftArm
									{
										OFFSET 8.771219 -2.981674 -0.026999
										CHANNELS 3 Xrotation Yrotation Zrotation
										JOINT LeftForeArm
										{
											OFFSET 8.512804 0.000000 -0.000000
											CHANNELS 3 Xrotation Yrotation Zrotation
											JOINT LeftHand
											{
												OFFSET 18.484802 0.000000 -0.000000
												CHANNELS 3 Xrotation Yrotation Zrotation
												End Site
												{
													OFFSET 0 0 0
												}
											}
										}
									}
								}
							}
						}
						JOINT RightShoulder_virtual
						{
							OFFSET 0.000000 0.000000 0.000000
							CHANNELS 3 Xrotation Yrotation Zrotation
							JOINT RightShoulder
							{
								OFFSET -2.196100 4.412496 0.070690
								CHANNELS 3 Xrotation Yrotation Zrotation
								JOINT RightShoulder_split
								{
									OFFSET -2.196100 4.412496 0.070690
									CHANNELS 3 Xrotation Yrotation Zrotation
									JOINT RightArm
									{
										OFFSET -8.771282 -2.981682 -0.094208
										CHANNELS 3 Xrotation Yrotation Zrotation
										JOINT RightForeArm
										{
											OFFSET -8.494598 0.000000 0.000000
											CHANNELS 3 Xrotation Yrotation Zrotation
											JOINT RightHand
											{
												OFFSET -18.483803 0.000000 0.000001
												CHANNELS 3 Xrotation Yrotation Zrotation
												End Site
												{
													OFFSET 0 0 0
												}
											}
										}
									}
								}
							}
						}
					}
				}
			}
		}
	}
}
MOTION
Frames: 4
Frame Time: 0.03333333
-0.260411 30.976652 -0.105860 0.000000 0.000000 0.000000 -7.542343 -45.109011 -3.784721 -29.819950 2.745923 12.647968 38.074995 -10.716989 2.004953 -10.022437 0.764370 -11.148044 -1.659570 -1.748531 2.972821 0.000000 0.000000 0.000000 -7.200988 -41.189985 -3.070980 5.192656 -15.881377 -14.150402 31.413512 22.434880 -4.608977 -30.431385 -1.306758 4.229330 -2.155299 -3.686155 3.148963 0.000000 0.000000 0.000000 -9.210553 -43.483269 -4.921618 5.610798 -0.935087 1.185362 14.213501 0.196372 0.183914 0.931114 2.488202 -0.102724 0.000000 0.000000 0.000000 13.102168 0.358049 -0.338785 6.073549 -26.708166 -2.098636 -11.307894 -41.725288 0.287685 0.000000 0.000000 0.000000 13.677559 0.465392 -0.339446 0.056221 -6.109288 -7.138806 -4.547988 -3.722101 -0.571421 -1.997609 9.714320 -60.663780 0.717903 -55.538956 -2.484784 0.000000 0.000000 0.000000 14.555802 0.941230 -0.245161 0.809200 5.540281 8.184793 4.281031 1.881725 1.895027 4.656232 -24.770531 70.391711 -7.388611 56.653540 6.993285 0.000000 0.000000 0.000000 
-0.234429 31.051445 -0.133612 0.000000 0.000000 0.000000 -7.800452 -49.009722 -4.072699 -27.955985 3.155163 14.052395 37.529933 -8.627682 1.619957 -10.670816 1.586881 -12.839392 -1.640663 -1.773890 2.886284 0.000000 0.000000 0.000000 -7.411297 -45.225360 -3.322439 2.399036 -15.578067 -14.460615 32.615943 23.259340 -5.709262 -29.638957 -1.096094 4.463738 -1.619809 -2.761044 3.019216 0.000000 0.000000 0.000000 -9.563966 -47.588370 -5.378515 5.338310 -1.650511 1.167126 14.813005 -1.072942 0.557287 0.833963 2.481937 -0.218649 0.000000 0.000000 0.000000 13.610636 -0.843642 0.035005 6.210592 -26.614153 -2.489490 -11.068402 -43.018925 1.199580 0.000000 0.000000 0.000000 14.267922 -0.755233 -0.022851 -0.082051 -7.671933 -6.955797 -4.569829 -3.492495 -0.876052 -0.520261 10.829991 -60.572187 0.516178 -56.535795 -2.480790 0.000000 0.000000 0.000000 15.177234 -0.251530 0.127576 0.839460 4.215550 8.263795 4.654750 1.480102 2.055335 5.178126 -24.137439 70.181054 -6.779204 57.826000 6.710921 0.000000 0.000000 0.000000 
-0.215592 31.132542 -0.149097 0.000000 0.000000 0.000000 -8.054034 -52.883986 -4.321689 -25.968430 3.791833 15.284544 36.988790 -6.486676 1.269574 -11.225600 2.346803 -14.574737 -1.678382 -1.821277 2.836735 0.000000 0.000000 0.000000 -7.608127 -49.243075 -3.528936 -0.156781 -15.171617 -14.689201 33.718516 23.766429 -6.785632 -28.983061 -1.039542 4.794567 -1.190243 -2.083952 2.904236 0.000000 0.000000 0.000000 -9.933289 -51.632515 -5.827638 5.067806 -2.291504 1.120519 15.357636 -2.226706 0.869277 0.767185 2.428451 -0.302396 0.000000 0.000000 0.000000 14.084493 -1.930959 0.344254 6.071811 -26.426301 -2.994811 -10.652383 -44.135767 2.092971 0.000000 0.000000 0.000000 14.813306 -1.863595 0.236899 -0.221707 -9.074572 -6.721519 -4.556151 -3.222886 -1.097725 0.653090 11.954722 -60.337311 0.134921 -57.638559 -2.583766 0.000000 0.000000 0.000000 15.758720 -1.335049 0.441314 0.910148 2.860855 8.531929 5.112383 1.122759 2.179702 5.739571 -23.851203 69.697320 -6.161903 59.078582 6.494105 0.000000 0.000000 0.000000 
-0.200841 31.214190 -0.153519 0.000000 0.000000 0.000000 -8.311228 -56.696799 -4.548914 -23.889463 4.636816 16.321207 36.425214 -4.307880 0.952932 -11.743400 3.038684 -16.325779 -1.721844 -1.884236 2.809188 0.000000 0.000000 0.000000 -7.772038 -53.190686 -3.697943 -2.415795 -14.668366 -14.827429 34.652053 23.964414 -7.791210 -28.514751 -1.120854 5.120831 -0.721400 -1.618892 2.801644 0.000000 0.000000 0.000000 -10.311754 -55.579203 -6.276580 4.819974 -2.843389 1.052973 15.805947 -3.232133 1.098280 0.729536 2.372255 -0.393496 0.000000 0.000000 0.000000 14.490526 -2.868237 0.567487 5.707059 -26.175491 -3.545042 -10.120831 -45.142838 2.952032 0.000000 0.000000 0.000000 15.284025 -2.827656 0.422964 -0.359797 -10.301234 -6.451164 -4.482325 -2.924872 -1.232136 1.436397 12.959240 -59.941604 -0.382201 -58.691098 -2.770589 0.000000 0.000000 0.000000 16.254412 -2.277311 0.671348 1.032033 1.556099 8.976268 5.614376 0.822874 2.280221 6.285306 -23.889104 68.959646 -5.617790 60.324046 6.392048 0.000000 0.000000 0.000000 
